<?xml version="1.0" standalone="no"?><!DOCTYPE svg PUBLIC "-//W3C//DTD SVG 1.1//EN" "http://www.w3.org/Graphics/SVG/1.1/DTD/svg11.dtd"><svg t="1618385465149" class="icon" viewBox="0 0 1029 1024" version="1.1" xmlns="http://www.w3.org/2000/svg" p-id="3325" xmlns:xlink="http://www.w3.org/1999/xlink" width="200.9765625" height="200"><defs><style type="text/css"></style></defs><path d="M315.837234 552.05767H157.918617A157.634143 157.634143 0 0 0 0 709.37178v157.31411a157.634143 157.634143 0 0 0 157.918617 157.31411h157.918617a157.634143 157.634143 0 0 0 157.918618-157.31411v-157.31411a157.634143 157.634143 0 0 0-157.918618-157.31411z m80.150544 315.801675a78.799292 78.799292 0 0 1-78.977088 78.657055H159.092072a78.799292 78.799292 0 0 1-78.977088-78.657055v-157.31411a78.799292 78.799292 0 0 1 78.977088-78.657055h157.918618a78.799292 78.799292 0 0 1 78.977088 78.657055z m474.929307-867.645634h-157.918617a157.634143 157.634143 0 0 0-157.918618 157.31411v157.31411a157.634143 157.634143 0 0 0 157.918618 157.31411h157.918617a157.634143 157.634143 0 0 0 157.918617-157.31411V157.527821A158.380887 158.380887 0 0 0 870.917085 0.28483z m78.941529 315.801675a78.799292 78.799292 0 0 1-78.941529 78.657055h-157.918617a78.799292 78.799292 0 0 1-78.977089-78.657055V158.701276a78.799292 78.799292 0 0 1 78.977089-78.657055h157.918617a78.799292 78.799292 0 0 1 78.941529 78.657055z m-78.941529 235.971165h-157.918617a157.634143 157.634143 0 0 0-157.918618 157.31411v157.31411a157.634143 157.634143 0 0 0 157.918618 157.314111h157.918617a157.634143 157.634143 0 0 0 157.918617-157.314111v-157.31411a159.163191 159.163191 0 0 0-157.918617-157.242991z m78.941529 315.801676a78.799292 78.799292 0 0 1-78.941529 78.657055h-157.918617a78.799292 78.799292 0 0 1-78.977089-78.657055v-157.31411a78.799292 78.799292 0 0 1 78.977089-78.657055h157.918617a78.799292 78.799292 0 0 1 78.941529 78.657055zM315.837234 0.142593H157.918617A157.634143 157.634143 0 0 0 0 157.456703v157.31411a157.634143 157.634143 0 0 0 157.918617 157.31411h157.918617a157.634143 157.634143 0 0 0 157.918618-157.31411V157.456703A156.887399 156.887399 0 0 0 315.837234 0.28483z m80.150544 315.801675a78.799292 78.799292 0 0 1-78.977088 78.657055H159.092072a78.799292 78.799292 0 0 1-78.977088-78.657055V158.630158a78.799292 78.799292 0 0 1 78.977088-78.657055h157.918618a78.799292 78.799292 0 0 1 78.977088 78.657055z" p-id="3326" fill="#d4237a"></path></svg>