<?xml version="1.0" standalone="no"?><!DOCTYPE svg PUBLIC "-//W3C//DTD SVG 1.1//EN" "http://www.w3.org/Graphics/SVG/1.1/DTD/svg11.dtd"><svg t="1618388515947" class="icon" viewBox="0 0 1024 1024" version="1.1" xmlns="http://www.w3.org/2000/svg" p-id="7150" xmlns:xlink="http://www.w3.org/1999/xlink" width="200" height="200"><defs><style type="text/css"></style></defs><path d="M403.066283 643.710161h-8.701114a255.9151 255.9151 0 0 1-169.415796-84.963813 32.629175 32.629175 0 1 1 50.15936-41.714161 193.471816 193.471816 0 0 0 124.118823 62.443284c45.808803 2.303236 91.617606-19.961378 136.146834-64.23469a31.86143 31.86143 0 0 1 45.041057 45.041058 249.005392 249.005392 0 0 1-177.349164 83.428322zM806.132566 991.242867A31.989388 31.989388 0 0 1 774.910923 1024a32.245303 32.245303 0 0 1-31.989387-30.965727 275.620563 275.620563 0 0 0-207.547146-245.422581l-4.350557-1.791406a380.289839 380.289839 0 0 1-255.9151 0l-3.326897 1.791406a275.876478 275.876478 0 0 0-207.547146 245.422581A32.245303 32.245303 0 0 1 31.989388 1024a31.989388 31.989388 0 0 1-30.965728-32.757133 344.973555 344.973555 0 0 1 197.310543-283.298016 383.87265 383.87265 0 1 1 411.511481 0 344.461725 344.461725 0 0 1 196.286882 283.298016zM403.066283 704.106125A319.893875 319.893875 0 1 0 83.172408 384.21225a320.405705 320.405705 0 0 0 319.893875 319.893875z" p-id="7151"></path></svg>